<svg width="32" height="34" viewBox="0 0 32 34" fill="none" xmlns="http://www.w3.org/2000/svg">
    <path fill-rule="evenodd" clip-rule="evenodd" d="M18.2272 10C18.3405 10.7596 18.0292 11.5029 17.6188 12.0292C17.1792 12.5933 16.4222 13.03 15.6909 13.0071C15.5576 12.28 15.9005 11.5321 16.3159 11.0279C16.7738 10.4721 17.5572 10.0458 18.2272 10ZM20.3101 21.1946C20.6884 20.6196 20.8288 20.3296 21.1226 19.6788C18.9901 18.8725 18.6472 15.8588 20.758 14.7017C20.1134 13.8988 19.2092 13.4342 18.3559 13.4342C17.7399 13.4342 17.3179 13.5938 16.9344 13.7389C16.615 13.8597 16.3223 13.9704 15.9663 13.9704C15.5817 13.9704 15.241 13.849 14.8841 13.7217C14.4916 13.5818 14.0797 13.435 13.5684 13.435C12.6092 13.435 11.5892 14.0171 10.9426 15.0129C10.033 16.4133 10.1872 19.0483 11.6622 21.2933C12.1897 22.0967 12.8938 22.9996 13.8155 23.0079C14.1971 23.0116 14.4512 22.8984 14.7263 22.7759C15.0413 22.6355 15.3839 22.4829 15.9772 22.4796C16.5741 22.4762 16.9111 22.6305 17.222 22.7728C17.49 22.8955 17.7386 23.0093 18.1176 23.0058C19.0392 22.9975 19.783 21.9975 20.3101 21.1946Z" fill="black"/>
    <rect x="0.87793" y="0.5" width="29.7446" height="32.008" rx="4.5" stroke="#9E9B9B"/>
</svg>