<svg width="34" height="33" viewBox="0 0 34 33" fill="none" xmlns="http://www.w3.org/2000/svg">
<path fill-rule="evenodd" clip-rule="evenodd" d="M23.1279 16.6456C23.1279 16.2024 23.0882 15.7763 23.0143 15.3672H17.1279V17.7848H20.4916C20.3467 18.5661 19.9063 19.228 19.2444 19.6712V21.2394H21.2643C22.4461 20.1513 23.1279 18.549 23.1279 16.6456Z" fill="#4285F4"/>
<path fill-rule="evenodd" clip-rule="evenodd" d="M17.1282 22.7539C18.8157 22.7539 20.2305 22.1943 21.2646 21.2397L19.2447 19.6715C18.685 20.0465 17.9691 20.2681 17.1282 20.2681C15.5004 20.2681 14.1225 19.1687 13.631 17.6914H11.543V19.3107C12.5714 21.3533 14.685 22.7539 17.1282 22.7539Z" fill="#34A853"/>
<path fill-rule="evenodd" clip-rule="evenodd" d="M13.6308 17.6896C13.5058 17.3146 13.4348 16.9141 13.4348 16.5021C13.4348 16.0902 13.5058 15.6896 13.6308 15.3146V13.6953H11.5427C11.1194 14.5391 10.8779 15.4936 10.8779 16.5021C10.8779 17.5107 11.1194 18.4652 11.5427 19.309L13.6308 17.6896Z" fill="#FBBC05"/>
<path fill-rule="evenodd" clip-rule="evenodd" d="M17.1282 12.7397C18.0458 12.7397 18.8697 13.055 19.5174 13.6744L21.31 11.8817C20.2276 10.8732 18.8129 10.2539 17.1282 10.2539C14.685 10.2539 12.5714 11.6545 11.543 13.6971L13.631 15.3164C14.1225 13.8391 15.5004 12.7397 17.1282 12.7397Z" fill="#EA4335"/>
<rect x="1.37793" y="0.753906" width="31.5" height="31.5" rx="4.5" stroke="#9E9B9B"/>
</svg>
